<mxfile host="app.diagrams.net" modified="2020-09-01T03:10:24.050Z" agent="5.0 (Windows NT 6.3; Win64; x64) AppleWebKit/537.36 (KHTML, like Gecko) Chrome/81.0.4044.138 Safari/537.36" etag="8oY02bBEItyD0sCTxdgG" version="13.6.5" type="github">
  <diagram id="HiV-5aNQXVTHwoBysofh" name="Page-1">
    <mxGraphModel dx="1000" dy="500" grid="1" gridSize="10" guides="1" tooltips="1" connect="1" arrows="1" fold="1" page="1" pageScale="1" pageWidth="827" pageHeight="1169" math="0" shadow="0">
      <root>
        <mxCell id="0" />
        <mxCell id="1" parent="0" />
        <mxCell id="q27XDtGAgko8r7h_JUwE-3" value="" style="edgeStyle=orthogonalEdgeStyle;rounded=0;orthogonalLoop=1;jettySize=auto;html=1;fontColor=#FF0000;" edge="1" parent="1" source="q27XDtGAgko8r7h_JUwE-1" target="q27XDtGAgko8r7h_JUwE-2">
          <mxGeometry relative="1" as="geometry" />
        </mxCell>
        <mxCell id="q27XDtGAgko8r7h_JUwE-1" value="Feature Extraction" style="rounded=0;whiteSpace=wrap;html=1;labelBackgroundColor=none;labelBorderColor=none;strokeColor=#36393d;fillColor=none;" vertex="1" parent="1">
          <mxGeometry x="340" y="100" width="116" height="38" as="geometry" />
        </mxCell>
        <mxCell id="q27XDtGAgko8r7h_JUwE-5" value="" style="edgeStyle=orthogonalEdgeStyle;rounded=0;orthogonalLoop=1;jettySize=auto;html=1;fontColor=#FF0000;" edge="1" parent="1" source="q27XDtGAgko8r7h_JUwE-2" target="q27XDtGAgko8r7h_JUwE-4">
          <mxGeometry relative="1" as="geometry" />
        </mxCell>
        <mxCell id="q27XDtGAgko8r7h_JUwE-2" value="Feature Matching" style="whiteSpace=wrap;html=1;rounded=0;strokeColor=#36393d;fillColor=none;" vertex="1" parent="1">
          <mxGeometry x="340" y="170" width="116" height="38" as="geometry" />
        </mxCell>
        <mxCell id="q27XDtGAgko8r7h_JUwE-7" value="" style="edgeStyle=orthogonalEdgeStyle;rounded=0;orthogonalLoop=1;jettySize=auto;html=1;fontColor=#FF0000;" edge="1" parent="1" source="q27XDtGAgko8r7h_JUwE-4" target="q27XDtGAgko8r7h_JUwE-6">
          <mxGeometry relative="1" as="geometry" />
        </mxCell>
        <mxCell id="q27XDtGAgko8r7h_JUwE-4" value="Depth Estimation" style="whiteSpace=wrap;html=1;rounded=0;strokeColor=#36393d;fillColor=none;" vertex="1" parent="1">
          <mxGeometry x="340" y="240" width="116" height="38" as="geometry" />
        </mxCell>
        <mxCell id="q27XDtGAgko8r7h_JUwE-9" value="" style="edgeStyle=orthogonalEdgeStyle;rounded=0;orthogonalLoop=1;jettySize=auto;html=1;fontColor=#FF0000;" edge="1" parent="1" source="q27XDtGAgko8r7h_JUwE-6" target="q27XDtGAgko8r7h_JUwE-8">
          <mxGeometry relative="1" as="geometry" />
        </mxCell>
        <mxCell id="q27XDtGAgko8r7h_JUwE-6" value="Outlier Rejection" style="whiteSpace=wrap;html=1;rounded=0;strokeColor=#36393d;fillColor=none;" vertex="1" parent="1">
          <mxGeometry x="340" y="320" width="116" height="38" as="geometry" />
        </mxCell>
        <mxCell id="q27XDtGAgko8r7h_JUwE-8" value="Pose Estimation" style="whiteSpace=wrap;html=1;rounded=0;strokeColor=#36393d;fillColor=none;" vertex="1" parent="1">
          <mxGeometry x="340" y="380" width="116" height="38" as="geometry" />
        </mxCell>
      </root>
    </mxGraphModel>
  </diagram>
</mxfile>
